{
  "accessors": [
    {
      "bufferView": 2,
      "componentType": 5126,
      "count": 2636,
      "max": [
        1.6329569816589355,
        1.4389879703521729,
        1.327697992324829
      ],
      "min": [
        -1.5050430297851563,
        -0.31901299953460693,
        -0.8723139762878418
      ],
      "type": "VEC3"
    },
    {
      "bufferView": 2,
      "byteOffset": 31632,
      "componentType": 5126,
      "count": 2636,
      "max": [
        1.0,
        0.9989872574806213,
        1.0
      ],
      "min": [
        -1.0,
        -0.9999997615814209,
        -1.0
      ],
      "type": "VEC3"
    },
    {
      "bufferView": 1,
      "componentType": 5126,
      "count": 2636,
      "max": [
        46.76409912109375,
        43.332000732421875
      ],
      "min": [
        -41.1510009765625,
        -42.47200012207031
      ],
      "type": "VEC2"
    },
    {
      "bufferView": 0,
      "componentType": 5125,
      "count": 4602,
      "type": "SCALAR"
    },
    {
      "bufferView": 2,
      "byteOffset": 63264,
      "componentType": 5126,
      "count": 589,
      "max": [
        1.6329569816589355,
        1.4389879703521729,
        0.8876950144767761
      ],
      "min": [
        -1.5050430297851563,
        -0.31901198625564575,
        -0.43231201171875
      ],
      "type": "VEC3"
    },
    {
      "bufferView": 2,
      "byteOffset": 70332,
      "componentType": 5126,
      "count": 589,
      "max": [
        1.0,
        0.9989871978759766,
        1.0
      ],
      "min": [
        -1.0,
        -0.9999997615814209,
        -1.0
      ],
      "type": "VEC3"
    },
    {
      "bufferView": 1,
      "byteOffset": 21088,
      "componentType": 5126,
      "count": 589,
      "max": [
        26.360300064086914,
        43.332000732421875
      ],
      "min": [
        -20.74720001220703,
        -42.47200012207031
      ],
      "type": "VEC2"
    },
    {
      "bufferView": 0,
      "byteOffset": 18408,
      "componentType": 5125,
      "count": 999,
      "type": "SCALAR"
    },
    {
      "bufferView": 2,
      "byteOffset": 77400,
      "componentType": 5126,
      "count": 1770,
      "max": [
        2.3135600090026855,
        1.8421169519424438,
        1.7726750373840332
      ],
      "min": [
        -1.58154296875,
        -1.380614995956421,
        -1.327301025390625
      ],
      "type": "VEC3"
    },
    {
      "bufferView": 2,
      "byteOffset": 98640,
      "componentType": 5126,
      "count": 1770,
      "max": [
        0.9989141821861267,
        0.9988936185836792,
        1.0
      ],
      "min": [
        -0.9989420175552368,
        -0.9988932609558105,
        -1.0
      ],
      "type": "VEC3"
    },
    {
      "bufferView": 1,
      "byteOffset": 25800,
      "componentType": 5126,
      "count": 1770,
      "max": [
        0.7384520173072815,
        1.240149974822998
      ],
      "min": [
        -0.2426539957523346,
        0.4956980049610138
      ],
      "type": "VEC2"
    },
    {
      "bufferView": 0,
      "byteOffset": 22404,
      "componentType": 5125,
      "count": 4068,
      "type": "SCALAR"
    }
  ],
  "asset": {
    "extras": {
      "author": "hotdoghans (https://sketchfab.com/hotdoghans)",
      "license": "CC-BY-4.0 (http://creativecommons.org/licenses/by/4.0/)",
      "source": "https://sketchfab.com/3d-models/sunchair-c2c86c8f882d46abb01d06ddf9d1d7a8",
      "title": "Sunchair"
    },
    "generator": "Sketchfab-14.1.0",
    "version": "2.0"
  },
  "bufferViews": [
    {
      "buffer": 0,
      "byteLength": 38676,
      "name": "floatBufferViews",
      "target": 34963
    },
    {
      "buffer": 0,
      "byteLength": 39960,
      "byteOffset": 38676,
      "byteStride": 8,
      "name": "floatBufferViews",
      "target": 34962
    },
    {
      "buffer": 0,
      "byteLength": 119880,
      "byteOffset": 78636,
      "byteStride": 12,
      "name": "floatBufferViews",
      "target": 34962
    }
  ],
  "buffers": [
    {
      "byteLength": 198516,
      "uri": "scene.bin"
    }
  ],
  "materials": [
    {
      "doubleSided": true,
      "name": "Union1Mtl.002",
      "pbrMetallicRoughness": {
        "baseColorFactor": [
          0.5905709999999996,
          0.7999999999999999,
          0.0,
          1.0
        ],
        "metallicFactor": 0.0
      }
    },
    {
      "doubleSided": true,
      "name": "Material.001",
      "pbrMetallicRoughness": {
        "baseColorFactor": [
          0.8,
          0.8,
          0.8,
          1.0
        ],
        "metallicFactor": 0.0
      }
    },
    {
      "doubleSided": true,
      "name": "Part1Mtl.002",
      "pbrMetallicRoughness": {
        "baseColorFactor": [
          0.393114,
          0.191465,
          0.03493730000000001,
          1.0
        ],
        "metallicFactor": 0.0,
        "roughnessFactor": 0.17835365853658536
      }
    }
  ],
  "meshes": [
    {
      "name": "s_s.001_Union1Mtl.002_0",
      "primitives": [
        {
          "attributes": {
            "NORMAL": 1,
            "POSITION": 0,
            "TEXCOORD_0": 2
          },
          "indices": 3,
          "material": 0,
          "mode": 4
        }
      ]
    },
    {
      "name": "s_s.001_Material.001_0",
      "primitives": [
        {
          "attributes": {
            "NORMAL": 5,
            "POSITION": 4,
            "TEXCOORD_0": 6
          },
          "indices": 7,
          "material": 1,
          "mode": 4
        }
      ]
    },
    {
      "name": "s_s.002_Part1Mtl.002_0",
      "primitives": [
        {
          "attributes": {
            "NORMAL": 9,
            "POSITION": 8,
            "TEXCOORD_0": 10
          },
          "indices": 11,
          "material": 2,
          "mode": 4
        }
      ]
    }
  ],
  "nodes": [
    {
      "children": [
        1
      ],
      "matrix": [
        0.3060571551322937,
        0.0,
        0.0,
        0.0,
        0.0,
        6.795834009582917e-17,
        -0.3060571551322937,
        0.0,
        0.0,
        0.3060571551322937,
        6.795834009582917e-17,
        0.0,
        0.0,
        0.0,
        0.0,
        1.0
      ],
      "name": "Sketchfab_model"
    },
    {
      "children": [
        2
      ],
      "matrix": [
        0.009999999776482582,
        0.0,
        0.0,
        0.0,
        0.0,
        0.0,
        0.009999999776482582,
        0.0,
        0.0,
        -0.009999999776482582,
        0.0,
        0.0,
        0.0,
        0.0,
        0.0,
        1.0
      ],
      "name": "85e4b9c109c9459480e0a6efe4be591b.fbx"
    },
    {
      "children": [
        3,
        6
      ],
      "name": "RootNode"
    },
    {
      "children": [
        4,
        5
      ],
      "matrix": [
        100.0,
        0.0,
        0.0,
        0.0,
        0.0,
        99.99999999999866,
        1.6292067073209114e-05,
        0.0,
        0.0,
        -1.6292067073209114e-05,
        99.99999999999866,
        0.0,
        0.0,
        0.0,
        0.0,
        1.0
      ],
      "name": "s_s.001"
    },
    {
      "mesh": 0,
      "name": "s_s.001_Union1Mtl.002_0"
    },
    {
      "mesh": 1,
      "name": "s_s.001_Material.001_0"
    },
    {
      "children": [
        7
      ],
      "matrix": [
        100.0,
        0.0,
        0.0,
        0.0,
        0.0,
        99.99999999999866,
        1.6292067073209114e-05,
        0.0,
        0.0,
        -1.6292067073209114e-05,
        99.99999999999866,
        0.0,
        0.0,
        0.0,
        0.0,
        1.0
      ],
      "name": "s_s.002"
    },
    {
      "mesh": 2,
      "name": "s_s.002_Part1Mtl.002_0"
    }
  ],
  "scene": 0,
  "scenes": [
    {
      "name": "Sketchfab_Scene",
      "nodes": [
        0
      ]
    }
  ]
}
