{
  "accessors": [
    {
      "bufferView": 2,
      "componentType": 5126,
      "count": 592,
      "max": [
        10.895383834838867,
        9.539261817932129,
        89.41323852539063
      ],
      "min": [
        -10.269189834594727,
        -9.8167085647583,
        0.525850772857666
      ],
      "type": "VEC3"
    },
    {
      "bufferView": 2,
      "byteOffset": 7104,
      "componentType": 5126,
      "count": 592,
      "max": [
        0.9525991678237915,
        0.9721407294273376,
        0.99961918592453
      ],
      "min": [
        -0.9589180946350098,
        -0.9604162573814392,
        -0.26451101899147034
      ],
      "type": "VEC3"
    },
    {
      "bufferView": 1,
      "componentType": 5126,
      "count": 592,
      "max": [
        1.0,
        1.0
      ],
      "min": [
        0.0,
        0.0
      ],
      "type": "VEC2"
    },
    {
      "bufferView": 0,
      "componentType": 5125,
      "count": 888,
      "type": "SCALAR"
    },
    {
      "bufferView": 2,
      "byteOffset": 14208,
      "componentType": 5126,
      "count": 2052,
      "max": [
        54.44186782836914,
        60.63845443725586,
        100.05882263183594
      ],
      "min": [
        -62.231689453125,
        -53.573848724365234,
        49.412906646728516
      ],
      "type": "VEC3"
    },
    {
      "bufferView": 2,
      "byteOffset": 38832,
      "componentType": 5126,
      "count": 2052,
      "max": [
        0.9992984533309937,
        0.9985734820365906,
        0.9997842907905579
      ],
      "min": [
        -0.9999551177024841,
        -0.996975839138031,
        -0.9992536306381226
      ],
      "type": "VEC3"
    },
    {
      "bufferView": 1,
      "byteOffset": 4736,
      "componentType": 5126,
      "count": 2052,
      "max": [
        1.0,
        1.0
      ],
      "min": [
        0.0,
        0.0
      ],
      "type": "VEC2"
    },
    {
      "bufferView": 0,
      "byteOffset": 3552,
      "componentType": 5125,
      "count": 8208,
      "type": "SCALAR"
    },
    {
      "bufferView": 2,
      "byteOffset": 63456,
      "componentType": 5126,
      "count": 288,
      "max": [
        12.404471397399902,
        16.612804412841797,
        90.78314971923828
      ],
      "min": [
        -13.442912101745605,
        -9.955123901367188,
        76.29017639160156
      ],
      "type": "VEC3"
    },
    {
      "bufferView": 2,
      "byteOffset": 66912,
      "componentType": 5126,
      "count": 288,
      "max": [
        0.9787879586219788,
        0.9982994198799133,
        0.9861835837364197
      ],
      "min": [
        -0.9787878394126892,
        -0.9982994794845581,
        -0.9861835837364197
      ],
      "type": "VEC3"
    },
    {
      "bufferView": 1,
      "byteOffset": 21152,
      "componentType": 5126,
      "count": 288,
      "max": [
        1.0,
        1.0
      ],
      "min": [
        0.0,
        0.0
      ],
      "type": "VEC2"
    },
    {
      "bufferView": 0,
      "byteOffset": 36384,
      "componentType": 5125,
      "count": 432,
      "type": "SCALAR"
    }
  ],
  "asset": {
    "extras": {
      "author": "Anna Vidal (Milaein) (https://sketchfab.com/milaein)",
      "license": "CC-BY-4.0 (http://creativecommons.org/licenses/by/4.0/)",
      "source": "https://sketchfab.com/3d-models/low-poly-palm-tree-with-coconuts-separately-32a7255a308e46cfbdabeb996405ba47",
      "title": "Low poly palm tree with coconuts (Separately)"
    },
    "generator": "Sketchfab-12.63.0",
    "version": "2.0"
  },
  "bufferViews": [
    {
      "buffer": 0,
      "byteLength": 38112,
      "name": "floatBufferViews",
      "target": 34963
    },
    {
      "buffer": 0,
      "byteLength": 23456,
      "byteOffset": 38112,
      "byteStride": 8,
      "name": "floatBufferViews",
      "target": 34962
    },
    {
      "buffer": 0,
      "byteLength": 70368,
      "byteOffset": 61568,
      "byteStride": 12,
      "name": "floatBufferViews",
      "target": 34962
    }
  ],
  "buffers": [
    {
      "byteLength": 131936,
      "uri": "scene.bin"
    }
  ],
  "images": [
    {
      "uri": "textures/Material_41_baseColor.png"
    },
    {
      "uri": "textures/Material_42_baseColor.png"
    },
    {
      "uri": "textures/Material_45_baseColor.png"
    }
  ],
  "materials": [
    {
      "doubleSided": true,
      "name": "Material_41",
      "pbrMetallicRoughness": {
        "baseColorTexture": {
          "index": 0
        },
        "metallicFactor": 0.0,
        "roughnessFactor": 0.8929713596
      }
    },
    {
      "doubleSided": true,
      "name": "Material_42",
      "pbrMetallicRoughness": {
        "baseColorTexture": {
          "index": 1
        },
        "metallicFactor": 0.0,
        "roughnessFactor": 0.8929713596
      }
    },
    {
      "doubleSided": true,
      "name": "Material_45",
      "pbrMetallicRoughness": {
        "baseColorTexture": {
          "index": 2
        },
        "metallicFactor": 0.0,
        "roughnessFactor": 0.8929713596
      }
    }
  ],
  "meshes": [
    {
      "name": "Tronco_Material #41_0",
      "primitives": [
        {
          "attributes": {
            "NORMAL": 1,
            "POSITION": 0,
            "TEXCOORD_0": 2
          },
          "indices": 3,
          "material": 0,
          "mode": 4
        }
      ]
    },
    {
      "name": "Tronco_Material #42_0",
      "primitives": [
        {
          "attributes": {
            "NORMAL": 5,
            "POSITION": 4,
            "TEXCOORD_0": 6
          },
          "indices": 7,
          "material": 1,
          "mode": 4
        }
      ]
    },
    {
      "name": "Tronco_Material #45_0",
      "primitives": [
        {
          "attributes": {
            "NORMAL": 9,
            "POSITION": 8,
            "TEXCOORD_0": 10
          },
          "indices": 11,
          "material": 2,
          "mode": 4
        }
      ]
    }
  ],
  "nodes": [
    {
      "children": [
        1
      ],
      "matrix": [
        0.015054920688271523,
        0.0,
        0.0,
        0.0,
        0.0,
        3.3428639164049306e-18,
        -0.015054920688271523,
        0.0,
        0.0,
        0.015054920688271523,
        3.3428639164049306e-18,
        0.0,
        0.0,
        0.0,
        0.0,
        1.0
      ],
      "name": "Sketchfab_model"
    },
    {
      "children": [
        2
      ],
      "matrix": [
        1.0,
        0.0,
        0.0,
        0.0,
        0.0,
        0.0,
        1.0,
        0.0,
        0.0,
        -1.0,
        0.0,
        0.0,
        0.0,
        0.0,
        0.0,
        1.0
      ],
      "name": "e9c0e2a0635346a9a016c6125b8d1f16.fbx"
    },
    {
      "children": [
        3
      ],
      "name": "RootNode"
    },
    {
      "children": [
        4,
        5,
        6
      ],
      "matrix": [
        1.749260219148838,
        0.0,
        1.841653738333224,
        0.0,
        1.841653738333224,
        0.0,
        -1.7492602191488378,
        0.0,
        0.0,
        2.5399999618530273,
        0.0,
        0.0,
        -3.9444680213928223,
        -110.78730773925781,
        2.985095977783203,
        1.0
      ],
      "name": "Tronco"
    },
    {
      "mesh": 0,
      "name": "Tronco_Material #41_0"
    },
    {
      "mesh": 1,
      "name": "Tronco_Material #42_0"
    },
    {
      "mesh": 2,
      "name": "Tronco_Material #45_0"
    }
  ],
  "samplers": [
    {
      "magFilter": 9729,
      "minFilter": 9987,
      "wrapS": 10497,
      "wrapT": 10497
    }
  ],
  "scene": 0,
  "scenes": [
    {
      "name": "Sketchfab_Scene",
      "nodes": [
        0
      ]
    }
  ],
  "textures": [
    {
      "sampler": 0,
      "source": 0
    },
    {
      "sampler": 0,
      "source": 1
    },
    {
      "sampler": 0,
      "source": 2
    }
  ]
}
